<?xml version="1.0" encoding="UTF-8" standalone="no"?>
<!-- Created with Inkscape (http://www.inkscape.org/) -->

<svg
   xmlns:osb="http://www.openswatchbook.org/uri/2009/osb"
   xmlns:dc="http://purl.org/dc/elements/1.1/"
   xmlns:cc="http://creativecommons.org/ns#"
   xmlns:rdf="http://www.w3.org/1999/02/22-rdf-syntax-ns#"
   xmlns:svg="http://www.w3.org/2000/svg"
   xmlns="http://www.w3.org/2000/svg"
   xmlns:xlink="http://www.w3.org/1999/xlink"
   xmlns:sodipodi="http://sodipodi.sourceforge.net/DTD/sodipodi-0.dtd"
   xmlns:inkscape="http://www.inkscape.org/namespaces/inkscape"
   width="210mm"
   height="297mm"
   viewBox="0 0 210 297"
   version="1.1"
   id="svg8"
   inkscape:version="0.92.4 (5da689c313, 2019-01-14)"
   sodipodi:docname="dibujo-1.svg">
  <defs
     id="defs2">
    <linearGradient
       id="linearGradient1055"
       osb:paint="solid">
      <stop
         style="stop-color:#000000;stop-opacity:1;"
         offset="0"
         id="stop1053" />
    </linearGradient>
    <linearGradient
       inkscape:collect="always"
       xlink:href="#linearGradient1055"
       id="linearGradient1057"
       x1="167.34855"
       y1="496.52059"
       x2="472.9725"
       y2="496.52059"
       gradientUnits="userSpaceOnUse"
       gradientTransform="matrix(0.26458333,0,0,0.26458333,-1.0583357,-0.79374991)" />
  </defs>
  <sodipodi:namedview
     id="base"
     pagecolor="#ffffff"
     bordercolor="#666666"
     borderopacity="1.0"
     inkscape:pageopacity="0.0"
     inkscape:pageshadow="2"
     inkscape:zoom="0.53588673"
     inkscape:cx="431.49489"
     inkscape:cy="550.89985"
     inkscape:document-units="mm"
     inkscape:current-layer="layer1"
     showgrid="false"
     showguides="true"
     inkscape:guide-bbox="true"
     inkscape:window-width="1600"
     inkscape:window-height="848"
     inkscape:window-x="-8"
     inkscape:window-y="-8"
     inkscape:window-maximized="1">
    <sodipodi:guide
       position="-194.20417,16.404167"
       orientation="0,1"
       id="guide89"
       inkscape:locked="false" />
  </sodipodi:namedview>
  <metadata
     id="metadata5">
    <rdf:RDF>
      <cc:Work
         rdf:about="">
        <dc:format>image/svg+xml</dc:format>
        <dc:type
           rdf:resource="http://purl.org/dc/dcmitype/StillImage" />
        <dc:title></dc:title>
      </cc:Work>
    </rdf:RDF>
  </metadata>
  <g
     inkscape:label="Capa 1"
     inkscape:groupmode="layer"
     id="layer1">
    <g
       id="g1099">
      <path
         inkscape:connector-curvature="0"
         id="path22-3-6"
         d="m 108.25696,64.801212 a 65.087502,65.776252 0 0 0 -64.865296,65.925688 65.087502,65.776252 0 0 0 65.161396,65.62649 65.087502,65.776252 0 0 0 15.48691,-1.97766 65.087502,65.776252 0 0 1 -54.71914,-64.70716 65.087502,65.776252 0 0 1 49.54013,-63.948553 65.087502,65.776252 0 0 0 -10.604,-0.918805 z"
         style="fill:#1a502f;stroke:url(#linearGradient1057);stroke-width:0.34400001;stroke-miterlimit:4;stroke-dasharray:none;fill-opacity:1" />
      <path
         inkscape:connector-curvature="0"
         id="path22"
         d="M 108.25696,64.801212 A 65.087502,65.776252 0 0 0 43.391668,130.7269 65.087502,65.776252 0 0 0 66.082274,180.44273 65.087502,65.776252 0 0 1 60.325002,153.74565 65.087502,65.776252 0 0 1 125.19029,87.819962 65.087502,65.776252 0 0 1 167.81611,103.74457 65.087502,65.776252 0 0 0 108.25696,64.801212 Z"
         style="fill:#2fb630;stroke-width:0.34437829;fill-opacity:1" />
      <path
         inkscape:connector-curvature="0"
         id="path22-3-3-1"
         d="m 27.507622,81.881216 a 42.571598,43.022086 0 0 0 -7.386629,0.688329 h -84.013991 c 0.939477,3.757901 2.030989,7.779631 3.307807,11.842171 l 25.650632,-0.200504 -23.349995,6.947378 c 0.793244,2.14777 1.644827,4.26996 2.557984,6.3376 l 20.262844,-2.70164 -17.960144,7.52615 c 0.914691,1.76092 1.882434,3.45498 2.90835,5.05602 l 15.580961,-4.11551 -14.434262,5.8291 c 4.795584,6.87056 10.773733,11.70519 18.262968,12.29021 5.72617,0.4473 11.591094,1.26001 17.032552,1.85983 a 42.571598,43.022086 0 0 0 41.774712,34.68471 42.571598,43.022086 0 0 0 42.522468,-43.02218 l -5.17e-4,-0.19585 A 42.571598,43.022086 0 0 0 27.507622,81.881216 Z"
         style="fill:#2d5016;stroke-width:0.22524652" />
      <path
         id="path22-3-3-1-3"
         d="m 34.194781,81.264856 a 38.540359,38.524195 0 0 0 -6.687159,0.61636 h -76.058455 c 4.51786,17.87466 12.92417,42.413014 29.68289,43.707864 5.18395,0.40054 10.4935,1.12827 15.41969,1.6654 a 38.540359,38.524195 0 0 0 37.81848,31.05847 38.540359,38.524195 0 0 0 38.496339,-38.52428 l -4.74e-4,-0.17537 A 38.540359,38.524195 0 0 0 34.194781,81.264856 Z"
         style="fill:#338000;stroke-width:0.20280424"
         inkscape:connector-curvature="0" />
      <path
         inkscape:connector-curvature="0"
         id="path22-2"
         d="M 137.35389,71.707767 V 88.982164 A 65.087502,65.776252 0 0 1 167.81611,103.74457 65.087502,65.776252 0 0 0 137.35389,71.707767 Z M 63.782151,178.32606 a 65.087502,65.776252 0 0 0 2.300118,2.11667 65.087502,65.776252 0 0 1 -0.821656,-2.11667 z"
         style="fill:#aa8800;stroke-width:0.34437829" />
      <path
         d="m 114.79343,71.673331 a 2.0443854,2.1293454 0 0 1 -2.88773,-0.124595 2.0443854,2.1293454 0 0 1 0.11764,-3.007821 2.0443854,2.1293454 0 0 1 2.88789,0.120464 2.0443854,2.1293454 0 0 1 -0.11367,3.007986 l -1.38814,-1.563232 z"
         sodipodi:end="0.8243956"
         sodipodi:start="0.82714297"
         sodipodi:ry="2.1293454"
         sodipodi:rx="2.0443854"
         sodipodi:cy="70.106133"
         sodipodi:cx="113.40942"
         sodipodi:type="arc"
         id="path1069"
         style="fill:#0000ff;fill-opacity:1;stroke-width:0.05966644;stroke-miterlimit:4;stroke-dasharray:none" />
      <flowRoot
         transform="matrix(0.94435756,0,0,1.5322751,-227.45086,-541.40491)"
         style="font-style:normal;font-variant:normal;font-weight:normal;font-stretch:normal;font-size:40px;line-height:1.25;font-family:'Bauhaus 93';-inkscape-font-specification:'Bauhaus 93, Normal';font-variant-ligatures:normal;font-variant-caps:normal;font-variant-numeric:normal;font-feature-settings:normal;text-align:start;letter-spacing:0px;word-spacing:0px;writing-mode:lr-tb;text-anchor:start;fill:#0000ff;fill-opacity:1;stroke:none;"
         id="flowRoot1081"
         xml:space="preserve"><flowRegion
           style="font-style:normal;font-variant:normal;font-weight:normal;font-stretch:normal;font-size:40px;font-family:'Bauhaus 93';-inkscape-font-specification:'Bauhaus 93, Normal';font-variant-ligatures:normal;font-variant-caps:normal;font-variant-numeric:normal;font-feature-settings:normal;text-align:start;writing-mode:lr-tb;text-anchor:start;fill:#0000ff;"
           id="flowRegion1083"><rect
             style="font-style:normal;font-variant:normal;font-weight:normal;font-stretch:normal;font-size:40px;font-family:'Bauhaus 93';-inkscape-font-specification:'Bauhaus 93, Normal';font-variant-ligatures:normal;font-variant-caps:normal;font-variant-numeric:normal;font-feature-settings:normal;text-align:start;writing-mode:lr-tb;text-anchor:start;fill:#0000ff;"
             y="418.4754"
             x="333.5433"
             height="123.80831"
             width="207.8871"
             id="rect1085" /></flowRegion><flowPara
           id="flowPara1087">elvi</flowPara></flowRoot>    </g>
  </g>
</svg>
