<?xml version="1.0" encoding="UTF-8" standalone="no"?>
<!-- Created with Inkscape (http://www.inkscape.org/) -->

<svg
   xmlns:dc="http://purl.org/dc/elements/1.1/"
   xmlns:cc="http://creativecommons.org/ns#"
   xmlns:rdf="http://www.w3.org/1999/02/22-rdf-syntax-ns#"
   xmlns:svg="http://www.w3.org/2000/svg"
   xmlns="http://www.w3.org/2000/svg"
   xmlns:xlink="http://www.w3.org/1999/xlink"
   xmlns:sodipodi="http://sodipodi.sourceforge.net/DTD/sodipodi-0.dtd"
   xmlns:inkscape="http://www.inkscape.org/namespaces/inkscape"
   width="297mm"
   height="210mm"
   viewBox="0 0 297 210"
   version="1.1"
   id="svg8"
   inkscape:version="0.92.4 (5da689c313, 2019-01-14)"
   sodipodi:docname="Logo.svg">
  <defs
     id="defs2">
    <linearGradient
       inkscape:collect="always"
       id="linearGradient4680">
      <stop
         style="stop-color:#ff8080;stop-opacity:1"
         offset="0"
         id="stop4676" />
      <stop
         style="stop-color:#d4ff2a;stop-opacity:1"
         offset="1"
         id="stop4678" />
    </linearGradient>
    <linearGradient
       inkscape:collect="always"
       xlink:href="#linearGradient4680"
       id="linearGradient4682"
       x1="-542.59259"
       y1="-408.15103"
       x2="-609.25928"
       y2="-245.18808"
       gradientUnits="userSpaceOnUse"
       gradientTransform="matrix(-0.26458333,0,0,-0.26458333,3.8049511,135.60062)" />
    <linearGradient
       gradientTransform="matrix(0.26458333,0,0,0.26458333,266.70982,252.17854)"
       inkscape:collect="always"
       xlink:href="#linearGradient4680"
       id="linearGradient4682-5"
       x1="-542.59259"
       y1="-408.15103"
       x2="-609.25928"
       y2="-245.18808"
       gradientUnits="userSpaceOnUse" />
    <linearGradient
       inkscape:collect="always"
       xlink:href="#linearGradient4680"
       id="linearGradient4682-3"
       x1="-542.59259"
       y1="-408.15103"
       x2="-609.25928"
       y2="-245.18808"
       gradientUnits="userSpaceOnUse"
       gradientTransform="matrix(0,-0.26458333,0.26458333,0,193.29665,62.626444)" />
    <linearGradient
       inkscape:collect="always"
       xlink:href="#linearGradient4680"
       id="linearGradient4682-8"
       x1="-542.59259"
       y1="-408.15103"
       x2="-609.25928"
       y2="-245.18808"
       gradientUnits="userSpaceOnUse"
       gradientTransform="matrix(0,0.26458333,-0.26458333,0,77.476312,325.24039)" />
  </defs>
  <sodipodi:namedview
     id="base"
     pagecolor="#ffffff"
     bordercolor="#666666"
     borderopacity="1.0"
     inkscape:pageopacity="0.0"
     inkscape:pageshadow="2"
     inkscape:zoom="0.94"
     inkscape:cx="448.29598"
     inkscape:cy="304.68085"
     inkscape:document-units="mm"
     inkscape:current-layer="layer1"
     showgrid="false"
     inkscape:window-width="1920"
     inkscape:window-height="1028"
     inkscape:window-x="-8"
     inkscape:window-y="-8"
     inkscape:window-maximized="1" />
  <metadata
     id="metadata5">
    <rdf:RDF>
      <cc:Work
         rdf:about="">
        <dc:format>image/svg+xml</dc:format>
        <dc:type
           rdf:resource="http://purl.org/dc/dcmitype/StillImage" />
        <dc:title />
      </cc:Work>
    </rdf:RDF>
  </metadata>
  <g
     inkscape:label="Capa 1"
     inkscape:groupmode="layer"
     id="layer1"
     transform="translate(0,-87)">
    <rect
       style="fill:#ffff00;fill-opacity:1;stroke-width:0.26458332"
       id="rect832"
       width="0.97993827"
       height="32.82793"
       x="-179.3287"
       y="101.50231" />
    <rect
       style="fill:#ffff00;fill-opacity:1;stroke-width:0.26458332"
       id="rect834"
       width="2.4498456"
       height="11.759258"
       x="-236.65509"
       y="98.072533" />
    <g
       id="g839"
       transform="matrix(2.8815827,0,0,2.0554462,-242.8146,-206.79731)">
      <path
         inkscape:connector-curvature="0"
         id="rect4592-5"
         d="m 169.65943,243.12016 c 8.41473,0 15.18926,-6.77401 15.18926,-15.18874 v -29.43748 c 0,-8.41473 -6.77454,-15.18925 -15.18926,-15.18925 h -24.45897 v 44.62621 c 0,8.41473 -6.77453,15.18926 -15.18926,15.18926 z"
         style="fill:url(#linearGradient4682);fill-opacity:1;stroke-width:0.2404044" />
      <path
         id="rect4592-5-8"
         d="m 100.85535,144.65902 c -8.414734,0 -15.189264,6.774 -15.189264,15.18874 v 29.43748 c 0,8.41473 6.77454,15.18925 15.189264,15.18925 h 24.45896 v -44.62621 c 0,-8.41474 6.77453,-15.18926 15.18926,-15.18926 z"
         style="fill:url(#linearGradient4682-5);fill-opacity:1;stroke-width:0.2404044"
         inkscape:connector-curvature="0" />
      <path
         inkscape:connector-curvature="0"
         id="rect4592-5-9"
         d="m 85.777108,228.4809 c 0,8.41473 6.77401,15.18926 15.188742,15.18926 h 29.43748 c 8.41473,0 15.18925,-6.77454 15.18925,-15.18926 v -24.45897 h -44.62621 c -8.414732,0 -15.189262,-6.77452 -15.189262,-15.18926 z"
         style="fill:url(#linearGradient4682-3);fill-opacity:1;stroke-width:0.2404044" />
      <path
         inkscape:connector-curvature="0"
         id="rect4592-5-1"
         d="m 184.99585,159.38592 c 0,-8.41473 -6.77401,-15.18926 -15.18874,-15.18926 h -29.43748 c -8.41473,0 -15.18925,6.77454 -15.18925,15.18926 v 24.45897 h 44.62621 c 8.41473,0 15.18926,6.77453 15.18926,15.18926 z"
         style="fill:url(#linearGradient4682-8);fill-opacity:1;stroke-width:0.2404044" />
      <path
         inkscape:connector-curvature="0"
         id="rect4762"
         d="m 162.54708,156.3352 c -1.01752,0 -1.98961,0.3793 -2.91624,1.13787 -0.92666,0.74873 -1.69585,1.78806 -2.30758,3.11804 -0.8903,1.91122 -1.33547,4.03918 -1.33547,6.38386 0,1.26101 0.14539,2.53188 0.43608,3.81258 0.36945,1.60582 0.93877,2.98015 1.70794,4.12294 0.59962,0.88663 1.28704,1.57625 2.06228,2.06885 0.77524,0.49257 1.56259,0.73887 2.36208,0.73887 0.92059,0 1.80788,-0.30049 2.66184,-0.90144 0.86006,-0.61079 1.60199,-1.46298 2.22581,-2.5565 1.11442,-1.96046 1.68979,-4.40369 1.72612,-7.32962 h -5.24197 l -0.54509,-0.0143 c -0.2907,0 -0.43608,0.15756 -0.43608,0.47289 0,0.20675 0.0423,0.33495 0.12728,0.38419 0.0848,0.0492 0.33615,0.0838 0.75405,0.10352 h 4.74231 c -0.0545,1.09352 -0.23318,2.16736 -0.53602,3.22147 -0.70862,2.50234 -1.8745,4.22145 -3.49767,5.15735 -0.642,0.37438 -1.3052,0.56154 -1.98959,0.56154 -0.23014,0 -0.45728,-0.0346 -0.68137,-0.10352 l -0.0454,-8.91082 0.0454,-10.49201 c 0.23622,-0.0492 0.46939,-0.0738 0.69953,-0.0738 1.90783,0 3.47042,1.31517 4.68781,3.94558 0.15752,0.34479 0.30586,0.51719 0.44515,0.51719 0.0909,0 0.16649,-0.0443 0.22712,-0.13297 0.0666,-0.0886 0.0998,-0.19703 0.0998,-0.32511 0,-0.37438 -0.28768,-1.00979 -0.86306,-1.9063 -1.29005,-1.99988 -2.82843,-2.99983 -4.61511,-2.99983 z m -67.0918,0.60587 0.07267,9.17682 -0.0364,5.29034 -0.0092,4.93567 -0.0092,0.76841 h 10.32041 c 0.4603,-0.009 0.71165,-0.02 0.75405,-0.0294 0.1817,-0.0395 0.27255,-0.20704 0.27255,-0.50244 0,-0.35465 -0.17867,-0.532 -0.53601,-0.532 l -2.18038,0.0443 -3.07977,0.0592 -0.0636,-10.19645 v -0.88665 c 0,-0.65022 0.005,-1.20193 0.0181,-1.65509 l 4.17904,0.0443 0.7177,0.0295 c 0.39974,0 0.5996,-0.19217 0.5996,-0.57633 0,-0.20704 -0.0423,-0.34481 -0.12715,-0.41376 -0.0787,-0.0689 -0.24529,-0.10351 -0.49967,-0.10351 l -0.69953,0.0143 -3.17972,0.0887 -0.99024,-0.0143 0.0364,-4.58102 4.55153,0.10352 h 0.0636 c 0.26649,0 0.39972,-0.17243 0.39972,-0.51722 0,-0.27595 -0.0696,-0.44329 -0.20895,-0.5024 -0.0605,-0.0295 -0.30585,-0.0443 -0.73587,-0.0443 z m 19.5052,0 0.0181,8.9256 -0.0273,5.76321 -0.0181,4.81745 v 0.66498 h 5.5327 v -1.43341 l -0.009,-2.51214 v -0.6059 c 1.23553,1.58611 2.33178,2.75847 3.28872,3.51704 1.15075,0.90636 2.04408,1.35952 2.68004,1.35952 0.27861,0 0.4179,-0.16243 0.4179,-0.48765 0,-0.23649 -0.0939,-0.38422 -0.28162,-0.44333 -0.77526,-0.25622 -1.50205,-0.61078 -2.18039,-1.06397 -0.67228,-0.46303 -1.29912,-1.01963 -1.88055,-1.66985 1.82908,-0.14784 3.20695,-1.36938 4.13361,-3.66482 0.57537,-1.4285 0.86305,-2.95056 0.86305,-4.56624 0,-1.51714 -0.25739,-2.96533 -0.77221,-4.34458 -0.55721,-1.48761 -1.31427,-2.5565 -2.27121,-3.20669 -0.58749,-0.40392 -1.29914,-0.67979 -2.13496,-0.82755 -0.8358,-0.14784 -2.07134,-0.22162 -3.70662,-0.22162 z m 21.23137,0 0.0181,4.81745 0.0364,6.14743 -0.0273,5.64499 -0.0181,2.86686 -0.009,0.69451 h 4.497 c 1.32639,0 2.35602,-0.0294 3.08886,-0.0887 1.32639,-0.0984 2.31968,-0.73887 2.97984,-1.92106 0.53904,-0.95563 0.80856,-1.9999 0.80856,-3.13282 0,-0.69949 -0.10894,-1.34968 -0.32707,-1.95063 -0.21197,-0.61082 -0.53599,-1.17236 -0.97208,-1.68463 0.55116,-0.40392 0.98723,-1.03444 1.30822,-1.89152 0.321,-0.85711 0.48152,-1.81763 0.48152,-2.88161 0,-1.18219 -0.19381,-2.25112 -0.58144,-3.20671 -0.24832,-0.61082 -0.59657,-1.17236 -1.04477,-1.68463 -0.44819,-0.5123 -0.92968,-0.90144 -1.44449,-1.16744 -0.48452,-0.24621 -0.95694,-0.39897 -1.41725,-0.45808 -0.45423,-0.0689 -1.29003,-0.10352 -2.50742,-0.10352 z m 5.55994,0.97533 h 0.49967 c 0.99933,0 1.82909,0.16242 2.48926,0.48765 0.66623,0.32511 1.23857,0.85216 1.71704,1.58119 0.67228,1.00487 1.00842,2.21169 1.00842,3.62048 0,0.92605 -0.14539,1.74865 -0.43608,2.46784 -0.45425,1.14279 -1.12651,1.71417 -2.01684,1.71417 -0.49057,0 -0.94483,-0.17243 -1.36273,-0.51719 -0.12728,-0.0986 -0.22712,-0.14784 -0.29979,-0.14784 -0.0969,0 -0.1454,0.11324 -0.1454,0.33989 0,0.41376 0.1454,0.74871 0.43606,1.00484 0.29677,0.25623 0.6844,0.38422 1.16287,0.38422 0.22409,0 0.46635,-0.0443 0.72679,-0.13297 0.47849,0.43349 0.83582,0.92114 1.07202,1.46298 0.24227,0.532 0.3634,1.11817 0.3634,1.75852 0,1.261 -0.34523,2.30528 -1.03568,3.13282 -0.33311,0.39406 -0.75101,0.67484 -1.2537,0.84233 -0.50271,0.15757 -1.20527,0.23649 -2.1077,0.23649 l -0.81765,-0.0143 -0.0545,-9.35414 z m -21.22226,0.0592 c 1.44146,0.0294 2.55889,0.26108 3.35231,0.69454 0.79343,0.43346 1.45358,1.17728 1.98051,2.23139 0.69045,1.35955 1.03568,2.90131 1.03568,4.62534 0,1.01474 -0.13625,2.00974 -0.40883,2.98507 -0.29071,1.06398 -0.70861,1.95063 -1.25371,2.65993 -0.86003,1.13295 -1.91388,1.69941 -3.16153,1.69941 l -0.43609,-0.0143 c -0.4179,-0.49257 -0.81157,-1.02949 -1.18103,-1.61073 l -0.009,-0.69455 v -2.67471 z m -10.15691,13.01894 c -0.81763,0.02 -1.46871,0.33495 -1.95324,0.94576 -0.48453,0.60095 -0.72678,1.40388 -0.72678,2.40874 0,0.7093 0.14538,1.32995 0.43607,1.86196 0.49663,0.90635 1.24462,1.35952 2.24395,1.35952 0.79342,0 1.43847,-0.31033 1.93509,-0.93098 0.49664,-0.63052 0.74497,-1.44328 0.74497,-2.43828 0,-0.97533 -0.24531,-1.7536 -0.73588,-2.33485 -0.49059,-0.58124 -1.13865,-0.87187 -1.94418,-0.87187 z m 21.25862,0 c -0.81764,0.02 -1.46873,0.33495 -1.95324,0.94576 -0.48454,0.60095 -0.72678,1.40388 -0.72678,2.40874 0,0.7093 0.14538,1.32995 0.43606,1.86196 0.49664,0.90635 1.24462,1.35952 2.24396,1.35952 0.79342,0 1.43844,-0.31033 1.93509,-0.93098 0.49664,-0.63052 0.74494,-1.44328 0.74494,-2.43828 0,-0.97533 -0.24528,-1.7536 -0.73588,-2.33485 -0.49057,-0.58124 -1.13862,-0.87187 -1.94415,-0.87187 z m 20.35013,0 c -0.81765,0.02 -1.46874,0.33495 -1.95326,0.94576 -0.48451,0.60095 -0.72677,1.40388 -0.72677,2.40874 0,0.7093 0.14538,1.32995 0.43606,1.86196 0.49664,0.90635 1.24462,1.35952 2.24397,1.35952 0.79341,0 1.43843,-0.31033 1.93508,-0.93098 0.49664,-0.63052 0.74494,-1.44328 0.74494,-2.43828 0,-0.97533 -0.24528,-1.7536 -0.73585,-2.33485 -0.4906,-0.58124 -1.13865,-0.87187 -1.94417,-0.87187 z m 21.11324,0 c -0.81762,0.02 -1.46872,0.33495 -1.95325,0.94576 -0.48452,0.60095 -0.72678,1.40388 -0.72678,2.40874 0,0.7093 0.14539,1.32995 0.43606,1.86196 0.49664,0.90635 1.24463,1.35952 2.24397,1.35952 0.79341,0 1.43843,-0.31033 1.93508,-0.93098 0.49664,-0.63052 0.74497,-1.44328 0.74497,-2.43828 0,-0.97533 -0.24531,-1.7536 -0.73588,-2.33485 -0.49058,-0.58124 -1.13865,-0.87187 -1.94417,-0.87187 z"
         style="fill:#0000ff;fill-opacity:1;stroke-width:0.59323877" />
    </g>
  </g>
</svg>
